<!DOCTYPE svg PUBLIC "-//W3C//DTD SVG 1.1//EN" "http://www.w3.org/Graphics/SVG/1.1/DTD/svg11.dtd">
<!-- Uploaded to: SVG Repo, www.svgrepo.com, Transformed by: SVG Repo Mixer Tools -->
<svg height="800px" width="800px" version="1.1" id="Layer_1" xmlns="http://www.w3.org/2000/svg" xmlns:xlink="http://www.w3.org/1999/xlink" viewBox="-50.35 -50.35 604.17 604.17" xml:space="preserve" fill="#000000">
<g id="SVGRepo_bgCarrier" stroke-width="0">
<path transform="translate(-50.35, -50.35), scale(18.8803125)" d="M16,27.467309353873134C18.457550302669496,27.479225130658865,20.88105939922366,30.58478778159215,23.013781222894625,29.363643605532282C25.183192187844075,28.121492127582595,23.65005887367259,24.317967077225337,25.08067524757174,22.267937560426333C26.522693574078115,20.201569394202917,30.048436456276445,20.135404265645455,31.063244406098892,17.829009009550152C32.05337120784945,15.57870760139716,31.47200152678605,12.720666767660745,30.209712149289622,10.610967016857373C28.9736147257487,8.545042615603862,26.302438528658055,7.980033190301198,24.337794566814495,6.588575474317409C22.59237902846951,5.352386136403409,21.155107504904755,3.8015133620121495,19.24275469126728,2.843627044727471C16.99185927749932,1.7161667230172475,14.634545526148694,-0.05745058804406977,12.179200470214175,0.4984069450077637C9.729314107406761,1.0530287023839997,8.301276699357603,3.614661319566837,6.833320831738023,5.6529581711431955C5.561583110518831,7.418800762443586,4.781848024413995,9.43122914052357,4.229921548407445,11.53619803670832C3.717359394879951,13.491037018783246,3.8457811229353553,15.472308991748694,3.7296570491422774,17.48988937591042C3.5905003926453123,19.907645929767575,2.484811819743719,22.43520382032848,3.4754247456993337,24.645090097876786C4.476897959464378,26.879203801063753,6.633402931308378,28.75760768991996,9.021824984029763,29.295801646343516C11.402178887987027,29.832177570271757,13.559991009485032,27.45547862859578,16,27.467309353873134" fill="#775a5a" strokewidth="0"/>
</g>
<g id="SVGRepo_tracerCarrier" stroke-linecap="round" stroke-linejoin="round"/>
<g id="SVGRepo_iconCarrier"> <g> <polygon style="fill:#9EADB7;" points="157.867,247.467 157.867,418.133 174.933,418.133 183.467,503.467 320,503.467 328.533,418.133 345.6,418.133 345.6,247.467 "/> <path style="fill:#C8D2DA;" d="M98.133,68.267c-4.71,0-8.533-3.823-8.533-8.533v-51.2C89.6,3.823,93.423,0,98.133,0 c4.71,0,8.533,3.823,8.533,8.533v51.2C106.667,64.444,102.844,68.267,98.133,68.267"/> <polygon style="fill:#DBCDB8;" points="98.133,42.663 4.267,136.53 192,136.53 "/> <polygon style="fill:#C8D2DA;" points="38.4,418.133 157.867,418.133 157.867,170.667 38.4,170.667 "/> <polygon style="fill:#DBCDB8;" points="183.467,503.467 12.8,503.467 21.333,418.133 174.933,418.133 "/> <g> <path style="fill:#9EADB7;" d="M115.2,273.067H81.067V230.4c0-9.429,7.637-17.067,17.067-17.067l0,0 c9.429,0,17.067,7.637,17.067,17.067V273.067z"/> <path style="fill:#9EADB7;" d="M115.2,375.467H81.067V332.8c0-9.429,7.637-17.067,17.067-17.067l0,0 c9.429,0,17.067,7.637,17.067,17.067V375.467z"/> </g> <g> <path style="fill:#707D84;" d="M226.133,332.8H192v-34.133c0-9.429,7.637-17.067,17.067-17.067l0,0 c9.429,0,17.067,7.637,17.067,17.067V332.8z"/> <path style="fill:#707D84;" d="M311.467,332.8h-34.133v-34.133c0-9.429,7.637-17.067,17.067-17.067l0,0 c9.429,0,17.067,7.637,17.067,17.067V332.8z"/> </g> <polygon style="fill:#9EADB7;" points="21.333,170.667 174.933,170.667 174.933,136.533 21.333,136.533 "/> <g> <path style="fill:#707D84;" d="M285.867,503.467H217.6v-102.4c0-18.85,15.283-34.133,34.133-34.133l0,0 c18.85,0,34.133,15.283,34.133,34.133V503.467z"/> <polygon style="fill:#707D84;" points="192,247.467 226.133,247.467 226.133,213.333 192,213.333 "/> <polygon style="fill:#707D84;" points="277.333,247.467 311.467,247.467 311.467,213.333 277.333,213.333 "/> </g> <path style="fill:#9EADB7;" d="M251.733,469.333c-4.71,0-8.533-3.823-8.533-8.533v-42.667c0-4.71,3.823-8.533,8.533-8.533 s8.533,3.823,8.533,8.533V460.8C260.267,465.51,256.444,469.333,251.733,469.333"/> <g> <path style="fill:#FFFFFF;" d="M106.667,460.8c0,4.71-3.823,8.533-8.533,8.533c-4.71,0-8.533-3.823-8.533-8.533 c0-4.71,3.823-8.533,8.533-8.533C102.844,452.267,106.667,456.09,106.667,460.8"/> <path style="fill:#FFFFFF;" d="M64,469.333H46.933c-4.71,0-8.533-3.823-8.533-8.533c0-4.71,3.823-8.533,8.533-8.533H64 c4.71,0,8.533,3.823,8.533,8.533C72.533,465.51,68.71,469.333,64,469.333"/> <path style="fill:#FFFFFF;" d="M149.333,469.333h-17.067c-4.71,0-8.533-3.823-8.533-8.533c0-4.71,3.823-8.533,8.533-8.533h17.067 c4.71,0,8.533,3.823,8.533,8.533C157.867,465.51,154.044,469.333,149.333,469.333"/> </g> <g> <path style="fill:#9EADB7;" d="M55.467,221.867c4.71,0,8.533-3.823,8.533-8.533s-3.823-8.533-8.533-8.533H38.4v17.067H55.467z"/> <path style="fill:#9EADB7;" d="M55.467,384c4.71,0,8.533-3.823,8.533-8.533c0-4.71-3.823-8.533-8.533-8.533H38.4V384H55.467z"/> <path style="fill:#9EADB7;" d="M140.8,290.133c-4.71,0-8.533,3.823-8.533,8.533c0,4.71,3.823,8.533,8.533,8.533h17.067v-17.067 H140.8z"/> </g> <path style="fill:#C8D2DA;" d="M405.333,68.267c-4.71,0-8.533-3.823-8.533-8.533v-51.2c0-4.71,3.823-8.533,8.533-8.533 c4.71,0,8.533,3.823,8.533,8.533v51.2C413.867,64.444,410.044,68.267,405.333,68.267"/> <polygon style="fill:#DBCDB8;" points="405.333,42.663 311.467,136.53 499.2,136.53 "/> <polygon style="fill:#C8D2DA;" points="345.6,418.133 465.067,418.133 465.067,170.667 345.6,170.667 "/> <polygon style="fill:#DBCDB8;" points="490.667,503.467 320,503.467 328.533,418.133 482.133,418.133 "/> <g> <path style="fill:#9EADB7;" d="M422.4,273.067h-34.133V230.4c0-9.429,7.637-17.067,17.067-17.067l0,0 c9.429,0,17.067,7.637,17.067,17.067V273.067z"/> <path style="fill:#9EADB7;" d="M422.4,375.467h-34.133V332.8c0-9.429,7.637-17.067,17.067-17.067l0,0 c9.429,0,17.067,7.637,17.067,17.067V375.467z"/> <polygon style="fill:#9EADB7;" points="328.533,170.667 482.133,170.667 482.133,136.533 328.533,136.533 "/> </g> <g> <path style="fill:#FFFFFF;" d="M413.867,460.8c0,4.71-3.823,8.533-8.533,8.533c-4.71,0-8.533-3.823-8.533-8.533 c0-4.71,3.823-8.533,8.533-8.533C410.044,452.267,413.867,456.09,413.867,460.8"/> <path style="fill:#FFFFFF;" d="M371.2,469.333h-17.067c-4.71,0-8.533-3.823-8.533-8.533c0-4.71,3.823-8.533,8.533-8.533H371.2 c4.71,0,8.533,3.823,8.533,8.533C379.733,465.51,375.91,469.333,371.2,469.333"/> <path style="fill:#FFFFFF;" d="M456.533,469.333h-17.067c-4.71,0-8.533-3.823-8.533-8.533c0-4.71,3.823-8.533,8.533-8.533h17.067 c4.71,0,8.533,3.823,8.533,8.533C465.067,465.51,461.244,469.333,456.533,469.333"/> </g> <g> <path style="fill:#9EADB7;" d="M362.667,221.867c4.71,0,8.533-3.823,8.533-8.533s-3.823-8.533-8.533-8.533H345.6v17.067H362.667z"/> <path style="fill:#9EADB7;" d="M362.667,384c4.71,0,8.533-3.823,8.533-8.533c0-4.71-3.823-8.533-8.533-8.533H345.6V384H362.667z"/> <path style="fill:#9EADB7;" d="M448,290.133c-4.71,0-8.533,3.823-8.533,8.533c0,4.71,3.823,8.533,8.533,8.533h17.067v-17.067H448z "/> </g> </g> </g>
</svg>