<svg viewBox="0 0 64 64" xml:space="preserve" xmlns="http://www.w3.org/2000/svg" enable-background="new 0 0 64 64"><path d="M14.7 45c-.3 1.2 0 2.5.9 3.4 1.9-.7 2.9-2.8 2.2-4.8-.2-.4-.4-.9-.7-1.2-1.2.4-2.1 1.4-2.4 2.6z" fill="#f2e8d1" class="fill-f2e8d1"></path><path d="M15.1 43.5c-.3 1.2 0 2.5.9 3.5 1.2-.4 2.1-1.4 2.4-2.6" fill="#f2e8d1" class="fill-f2e8d1"></path><path d="M15.9 47c-.7-.7-1-1.7-1-2.7-.1.2-.2.4-.2.7-.3 1.2 0 2.5.9 3.4 1.2-.4 2.1-1.4 2.3-2.6.1-.3.1-.5.1-.8-.4.9-1.1 1.6-2.1 2z" fill="#fff8e9" class="fill-fff8e9"></path><path d="M14.7 45c-.3 1.2 0 2.5.9 3.4 1.9-.7 2.9-2.8 2.2-4.8-.2-.4-.4-.9-.7-1.2-1.2.4-2.1 1.4-2.4 2.6z" fill="none" stroke="#000000" stroke-linecap="round" stroke-miterlimit="10" class="stroke-041256"></path><path d="M15.5 41.9c-.3 1.2 0 2.5.9 3.4 1.9-.7 2.9-2.8 2.2-4.8-.2-.5-.4-.9-.7-1.2-1.3.5-2.1 1.4-2.4 2.6z" fill="#f2e8d1" class="fill-f2e8d1"></path><path d="M15.8 40.5c-.3 1.2 0 2.5.9 3.4 1.2-.4 2-1.4 2.3-2.6" fill="#f2e8d1" class="fill-f2e8d1"></path><path d="M16.7 44c-.7-.7-1-1.7-1-2.7-.1.2-.2.4-.2.7-.3 1.2 0 2.5.9 3.4 1.2-.4 2.1-1.4 2.4-2.6.1-.2.1-.5.1-.7-.6.9-1.3 1.6-2.2 1.9z" fill="#fff8e9" class="fill-fff8e9"></path><path d="M15.5 41.9c-.3 1.2 0 2.5.9 3.4 1.9-.7 2.9-2.8 2.2-4.8-.2-.5-.4-.9-.7-1.2-1.3.5-2.1 1.4-2.4 2.6z" fill="none" stroke="#000000" stroke-linecap="round" stroke-miterlimit="10" class="stroke-041256"></path><path d="M16.2 38.9c-.3 1.2 0 2.5.9 3.4 1.9-.7 2.9-2.8 2.2-4.8-.2-.5-.4-.9-.7-1.2-1.2.5-2.1 1.4-2.4 2.6z" fill="#f2e8d1" class="fill-f2e8d1"></path><path d="M16.6 37.5c-.3 1.2 0 2.5.9 3.5 1.2-.4 2.1-1.4 2.4-2.6" fill="#f2e8d1" class="fill-f2e8d1"></path><path d="M17.4 41c-.7-.7-1-1.7-1-2.7-.1.2-.2.4-.2.7-.3 1.2 0 2.5.9 3.4 1.2-.4 2.1-1.4 2.4-2.6.1-.2.1-.5.1-.7-.5.9-1.3 1.6-2.2 1.9z" fill="#fff8e9" class="fill-fff8e9"></path><path d="M16.2 38.9c-.3 1.2 0 2.5.9 3.4 1.9-.7 2.9-2.8 2.2-4.8-.2-.5-.4-.9-.7-1.2-1.2.5-2.1 1.4-2.4 2.6z" fill="none" stroke="#000000" stroke-linecap="round" stroke-miterlimit="10" class="stroke-041256"></path><path d="M17 35.9c-.3 1.2 0 2.5.9 3.4 1.9-.7 2.9-2.8 2.2-4.8-.2-.4-.4-.9-.7-1.2-1.2.5-2.1 1.4-2.4 2.6z" fill="#f2e8d1" class="fill-f2e8d1"></path><path d="M17.3 34.5c-.3 1.2 0 2.5.9 3.4 1.2-.4 2-1.4 2.4-2.6" fill="#f2e8d1" class="fill-f2e8d1"></path><path d="M18.2 37.9c-.7-.7-1-1.7-1-2.7-.1.2-.2.4-.2.7-.3 1.2 0 2.5.9 3.4 1.2-.4 2.1-1.4 2.4-2.6.1-.2.1-.5.1-.7-.6.9-1.3 1.6-2.2 1.9z" fill="#fff8e9" class="fill-fff8e9"></path><path d="M17 35.9c-.3 1.2 0 2.5.9 3.4 1.9-.7 2.9-2.8 2.2-4.8-.2-.4-.4-.9-.7-1.2-1.2.5-2.1 1.4-2.4 2.6z" fill="none" stroke="#000000" stroke-linecap="round" stroke-miterlimit="10" class="stroke-041256"></path><path d="M17.7 32.9c-.3 1.2 0 2.5.9 3.4 1.9-.7 2.9-2.8 2.2-4.8-.2-.4-.4-.9-.7-1.2-1.2.4-2.1 1.4-2.4 2.6z" fill="#f2e8d1" class="fill-f2e8d1"></path><path d="M18 31.5c-.3 1.2 0 2.5.9 3.4 1.2-.4 2.1-1.4 2.4-2.6" fill="#f2e8d1" class="fill-f2e8d1"></path><path d="M18.9 34.9c-.7-.7-1-1.7-1-2.7-.1.2-.2.4-.2.7-.3 1.2 0 2.5.9 3.4 1.2-.4 2.1-1.4 2.4-2.6.1-.2.1-.5.1-.7-.5.9-1.3 1.6-2.2 1.9z" fill="#fff8e9" class="fill-fff8e9"></path><path d="M17.7 32.9c-.3 1.2 0 2.5.9 3.4 1.9-.7 2.9-2.8 2.2-4.8-.2-.4-.4-.9-.7-1.2-1.2.4-2.1 1.4-2.4 2.6z" fill="none" stroke="#000000" stroke-linecap="round" stroke-miterlimit="10" class="stroke-041256"></path><path d="M49.3 45c.3 1.2 0 2.5-.9 3.4-1.9-.7-2.9-2.8-2.2-4.8.2-.4.4-.9.7-1.2 1.2.4 2.1 1.4 2.4 2.6z" fill="#f2e8d1" class="fill-f2e8d1"></path><path d="M48.9 43.5c.3 1.2 0 2.5-.9 3.5-1.2-.4-2.1-1.4-2.3-2.6" fill="#f2e8d1" class="fill-f2e8d1"></path><path d="M48.1 47c.7-.7 1-1.7 1-2.7.1.2.2.4.2.7.3 1.2 0 2.5-.9 3.4-1.2-.4-2.1-1.4-2.3-2.6-.1-.3-.1-.5-.1-.8.4.9 1.1 1.6 2.1 2z" fill="#fff8e9" class="fill-fff8e9"></path><path d="M49.3 45c.3 1.2 0 2.5-.9 3.4-1.9-.7-2.9-2.8-2.2-4.8.2-.4.4-.9.7-1.2 1.2.4 2.1 1.4 2.4 2.6z" fill="none" stroke="#000000" stroke-linecap="round" stroke-miterlimit="10" class="stroke-041256"></path><path d="M48.5 41.9c.3 1.2 0 2.5-.9 3.4-1.9-.7-2.9-2.8-2.2-4.8.2-.5.4-.9.7-1.2 1.3.5 2.1 1.4 2.4 2.6z" fill="#f2e8d1" class="fill-f2e8d1"></path><path d="M48.2 40.5c.3 1.2 0 2.5-.9 3.4-1.2-.4-2-1.4-2.3-2.6" fill="#f2e8d1" class="fill-f2e8d1"></path><path d="M47.3 44c.7-.7 1-1.7 1-2.7.1.2.2.4.2.7.3 1.2 0 2.5-.9 3.4-1.2-.4-2.1-1.4-2.3-2.6-.1-.2-.1-.5-.1-.7.5.9 1.2 1.6 2.1 1.9z" fill="#fff8e9" class="fill-fff8e9"></path><path d="M48.5 41.9c.3 1.2 0 2.5-.9 3.4-1.9-.7-2.9-2.8-2.2-4.8.2-.5.4-.9.7-1.2 1.3.5 2.1 1.4 2.4 2.6z" fill="none" stroke="#000000" stroke-linecap="round" stroke-miterlimit="10" class="stroke-041256"></path><path d="M47.8 38.9c.3 1.2 0 2.5-.9 3.4-1.9-.7-2.9-2.8-2.2-4.8.2-.5.4-.9.7-1.2 1.2.5 2.1 1.4 2.4 2.6z" fill="#f2e8d1" class="fill-f2e8d1"></path><path d="M47.4 37.5c.3 1.2 0 2.5-.9 3.5-1.2-.4-2.1-1.4-2.3-2.6" fill="#f2e8d1" class="fill-f2e8d1"></path><path d="M46.6 41c.7-.7 1-1.7 1-2.7.1.2.2.4.2.7.3 1.2 0 2.5-.9 3.4-1.2-.4-2.1-1.4-2.3-2.6-.1-.2-.1-.5-.1-.7.4.9 1.2 1.6 2.1 1.9z" fill="#fff8e9" class="fill-fff8e9"></path><path d="M47.8 38.9c.3 1.2 0 2.5-.9 3.4-1.9-.7-2.9-2.8-2.2-4.8.2-.5.4-.9.7-1.2 1.2.5 2.1 1.4 2.4 2.6z" fill="none" stroke="#000000" stroke-linecap="round" stroke-miterlimit="10" class="stroke-041256"></path><path d="M47 35.9c.3 1.2 0 2.5-.9 3.4-1.9-.7-2.9-2.8-2.2-4.8.2-.4.4-.9.7-1.2 1.2.5 2.1 1.4 2.4 2.6z" fill="#f2e8d1" class="fill-f2e8d1"></path><path d="M46.7 34.5c.3 1.2 0 2.5-.9 3.4-1.2-.4-2-1.4-2.3-2.6" fill="#f2e8d1" class="fill-f2e8d1"></path><path d="M45.8 37.9c.7-.7 1-1.7 1-2.7.1.2.2.4.2.7.3 1.2 0 2.5-.9 3.4-1.2-.4-2.1-1.4-2.3-2.6-.1-.2-.1-.5-.1-.7.5.9 1.2 1.6 2.1 1.9z" fill="#fff8e9" class="fill-fff8e9"></path><path d="M47 35.9c.3 1.2 0 2.5-.9 3.4-1.9-.7-2.9-2.8-2.2-4.8.2-.4.4-.9.7-1.2 1.2.5 2.1 1.4 2.4 2.6z" fill="none" stroke="#000000" stroke-linecap="round" stroke-miterlimit="10" class="stroke-041256"></path><path d="M46.3 32.9c.3 1.2 0 2.5-.9 3.4-1.9-.7-2.9-2.8-2.2-4.8.2-.4.4-.9.7-1.2 1.2.4 2.1 1.4 2.4 2.6z" fill="#f2e8d1" class="fill-f2e8d1"></path><path d="M46 31.5c.3 1.2 0 2.5-.9 3.4-1.2-.4-2.1-1.4-2.3-2.6" fill="#f2e8d1" class="fill-f2e8d1"></path><path d="M45.1 34.9c.7-.7 1-1.7 1-2.7.1.2.2.4.2.7.3 1.2 0 2.5-.9 3.4-1.2-.4-2.1-1.4-2.3-2.6 0-.2-.1-.5-.1-.7.4.9 1.2 1.6 2.1 1.9z" fill="#fff8e9" class="fill-fff8e9"></path><path d="M46.3 32.9c.3 1.2 0 2.5-.9 3.4-1.9-.7-2.9-2.8-2.2-4.8.2-.4.4-.9.7-1.2 1.2.4 2.1 1.4 2.4 2.6z" fill="none" stroke="#000000" stroke-linecap="round" stroke-miterlimit="10" class="stroke-041256"></path><path d="M56 56v-9.7c-2.7-.2-5.4-.6-8-1.3-7.8-2.1-13.3-5.7-12.4-8.2h-7.2c.9 2.5-4.6 6.1-12.4 8.2-2.6.7-5.3 1.2-8 1.3V56" fill="#000000" class="fill-823c50"></path><path d="M48 44.9c-7.8-2.1-13.3-5.7-12.4-8.2h-7.2c.9 2.5-4.6 6.1-12.4 8.2-2.6.7-5.3 1.2-8 1.3v3c2.7-.1 5.4-.6 8-1.3 7.8-2.1 13.3-5.7 12.4-8.2h7.2c-1 2.4 4.6 6.1 12.4 8.2 2.6.7 5.3 1.2 8 1.3v-3c-2.7-.1-5.4-.5-8-1.3z" fill="#000000" class="fill-9b566d"></path><path d="M28.4 42.2c-.7 2.3-5.7 5.3-12.4 7.1-2.6.7-5.3 1.2-8 1.3v1.1c2.7-.2 5.4-.6 8-1.3 7.7-2.1 13.3-5.8 12.4-8.2zM28.4 45.2zM28.4 42.2h7.2c-.1-.4-.1-.7 0-1.1h-7.2c.1.3.1.7 0 1.1z" fill="#000000" class="fill-9b566d"></path><path d="M48 49.3c-6.7-1.8-11.7-4.7-12.4-7.1-.9 2.5 4.7 6.1 12.4 8.2 2.6.7 5.3 1.2 8 1.3v-1.1c-2.7-.2-5.4-.6-8-1.3zM35.6 45.2zM28.4 44.5c-.7 2.3-5.7 5.3-12.4 7.1-2.6.7-5.3 1.1-8 1.3V54c2.7-.2 5.4-.6 8-1.3 7.7-2.2 13.3-5.8 12.4-8.2zM28.4 47.5z" fill="#000000" class="fill-9b566d"></path><path d="M28.4 44.4h7.2c-.1-.4-.1-.7 0-1.1h-7.2c.1.4.1.8 0 1.1zM48 51.5c-6.7-1.8-11.7-4.7-12.4-7.1-.9 2.5 4.7 6.1 12.4 8.2 2.6.7 5.3 1.1 8 1.3v-1.1c-2.7-.1-5.4-.6-8-1.3zM35.6 47.5zM28.4 46.7C27.7 49 22.7 52 16 53.8c-2.6.7-5.3 1.2-8 1.3v1.1c2.7-.2 5.4-.6 8-1.3 7.7-2.1 13.3-5.7 12.4-8.2zM28.4 49.7z" fill="#000000" class="fill-9b566d"></path><path d="M28.4 46.7h7.2c-.1-.4-.1-.7 0-1.1h-7.2c.1.4.1.7 0 1.1z" fill="#000000" class="fill-9b566d"></path><path d="M48 53.8c-6.7-1.8-11.7-4.7-12.4-7.1-.9 2.5 4.7 6.1 12.4 8.2 2.6.7 5.3 1.2 8 1.3v-1.1c-2.7-.2-5.4-.6-8-1.3zM35.6 49.7z" fill="#000000" class="fill-9b566d"></path><path d="M56 56v-9.7c-2.7-.2-5.4-.6-8-1.3-7.8-2.1-13.3-5.7-12.4-8.2h-7.2c.9 2.5-4.6 6.1-12.4 8.2-2.6.7-5.3 1.2-8 1.3V56" fill="none" stroke="#000000" stroke-width="2" stroke-linecap="round" stroke-miterlimit="10" class="stroke-041256"></path><path d="m25.7 33.5 1 11v.2c0 4.7 1.5 8.8 5.3 11.3 3.8-2.5 5.3-6.6 5.3-11.3v-.2l1-11H25.7z" fill="#f9dfcd" class="fill-f9dfcd"></path><path d="m35.6 35.9-8.3 3.6 4.1 4.7c.4.5.7 1.1.7 1.8v10c3.7-2.5 5.2-6.6 5.3-11.3v-.2l.7-7.4-2.5-1.2z" fill="#eacab5" class="fill-eacab5"></path><path d="m25.7 33.5 1 11v.2c0 4.7 1.5 8.8 5.3 11.3 3.8-2.5 5.3-6.6 5.3-11.3v-.2l1-11H25.7z" fill="none" stroke="#000000" stroke-width="2" stroke-linecap="round" stroke-linejoin="bevel" class="stroke-041256"></path><path d="M44.5 20.8c0-6.9-5.6-12.5-12.4-12.5s-12.5 5.6-12.5 12.4c0 2 .5 3.9 1.4 5.7.5 1 1 2.1 1.2 3.3l.2 1c.5 2.2 1.7 4.3 3.3 5.9l2.7 2.7c.7.7 1.8 1.2 2.8 1.2h1.6c1 0 2.1-.4 2.8-1.2l2.7-2.7c1.6-1.6 2.8-3.7 3.3-5.9l.2-1c.3-1.2.7-2.3 1.3-3.3.9-1.7 1.4-3.6 1.4-5.6z" fill="#ffeadc" class="fill-ffeadc"></path><path d="m22.5 14-.8 9.3 1.3 3.9 1.9-2.7h3.8c1.8 0 3.2-1.5 3.2-3.2 0-.8.3-1.6.9-2.2l3.5-3.7L22.5 14zM30.3 26.7l.8 1.3c.1.1.1.3.1.4l.2 4.3-.9-3v-.4l.2-1v-.4l-.4-1.2z" fill="#fff6f0" class="fill-fff6f0"></path><path d="m33.7 26.7-.8 1.3c-.1.1-.1.3-.1.4l-.2 4.3.9-3v-.4l-.2-1v-.4l.4-1.2z" fill="#f9dfcd" class="fill-f9dfcd"></path><path d="M27.8 34c-.3-.6-.8-1.1-1.5-1.4-.7-.3-1.2-.9-1.5-1.6l-1.3-3-1.9 3.1 4.1 5 3.9 3.6" fill="#fff6f0" class="fill-fff6f0"></path><path d="M36.2 34c.3-.6.8-1.1 1.5-1.4.7-.3 1.2-.9 1.5-1.6l1.3-3 1.9 3.1-4.1 5-3.9 3.6 1.8-5.7z" fill="#f9dfcd" class="fill-f9dfcd"></path><path d="M31.1 8.4c6.5.5 11.5 5.9 11.5 12.4 0 1.9-.5 3.9-1.3 5.6-.6 1.1-1 2.2-1.3 3.3l-.2 1c-.5 2.2-1.7 4.3-3.3 5.9l-2.7 2.7c-.7.7-1.7 1.1-2.7 1.1H32.8c1 0 2.1-.4 2.8-1.2l2.7-2.7c1.6-1.6 2.8-3.7 3.3-5.9l.2-1c.3-1.2.7-2.3 1.3-3.3 3.1-6.1.7-13.6-5.5-16.7-2-.9-4.3-1.4-6.5-1.2z" fill="#000000" class="fill-5df9e6"></path><path d="m30.6 39.3-2.7-2.7c-1.6-1.6-2.8-3.7-3.3-5.9l-.2-1c-.3-1.1-.7-2.2-1.3-3.3-3.1-6.1-.7-13.6 5.5-16.7 1.3-.7 2.7-1.1 4.2-1.3h.3c-6.8-.6-12.9 4.4-13.5 11.3-.2 2.3.2 4.7 1.3 6.8.5 1 1 2.1 1.2 3.3l.2 1c.5 2.2 1.7 4.3 3.3 5.9l2.7 2.7c.7.7 1.8 1.2 2.8 1.2H33c-.9-.2-1.7-.6-2.4-1.3z" fill="#fff6f0" class="fill-fff6f0"></path><path d="M21.5 20.3c-.9.1-1.6.7-1.9 1.5.1 1.6.6 3.2 1.3 4.6.2.4.4.8.5 1.2 1.3 0 2.3-1.6 2.3-3.7s-.9-3.6-2.2-3.6z" fill="#f2e8d1" class="fill-f2e8d1"></path><path d="M22.2 20.5c.6.8.8 1.8.8 2.8 0 1.8-.8 3.3-1.9 3.6.1.3.3.5.4.8 1.3 0 2.3-1.6 2.3-3.7.1-1.4-.5-2.7-1.6-3.5z" fill="#fff8e9" class="fill-fff8e9"></path><path d="M21.5 20.3c-.4 0-.8.2-1.1.5-.3.3-.5.7-.7 1.1.2 1 .5 2 .9 2.9.2.5.4.9.7 1.3.2.4.5.9.7 1.4l-.5-.3c.6-.1 1.2-.5 1.4-1.1.4-.7.6-1.4.7-2.2.1-.8 0-1.6-.3-2.3-.3-.7-1-1.2-1.8-1.3zm0 0c.8.1 1.5.6 1.9 1.4.4.7.7 1.5.7 2.4.1.9-.1 1.7-.4 2.5-.2.4-.5.8-.8 1.1-.4.3-.9.5-1.4.5h-.3l-.2-.3c-.2-.5-.4-.9-.6-1.4-.2-.5-.4-1-.5-1.5-.3-1-.4-2.1-.4-3.1.2-.4.5-.7.8-1 .3-.4.7-.6 1.2-.6z" fill="#000000" class="fill-041256"></path><path d="M42.5 20.3c.9.1 1.6.7 1.9 1.5-.1 1.6-.6 3.2-1.3 4.6-.2.4-.4.8-.5 1.2-1.3 0-2.3-1.6-2.3-3.7s.9-3.6 2.2-3.6z" fill="#f2e8d1" class="fill-f2e8d1"></path><path d="M41.8 20.5c-.6.8-.9 1.8-.8 2.8 0 1.8.8 3.3 1.9 3.6-.1.3-.3.5-.4.8-1.3 0-2.3-1.6-2.3-3.7-.1-1.4.5-2.7 1.6-3.5z" fill="#fff8e9" class="fill-fff8e9"></path><path d="M42.5 20.3c.2.2.3.4.4.7-.1 1.6-.6 3.2-1.3 4.6-.2.4-.4.8-.5 1.2.3.5.9.8 1.5.9.2-.4.3-.8.5-1.2.7-1.4 1.2-3 1.3-4.6-.3-.9-1-1.5-1.9-1.6z" fill="#000000" class="fill-5df9e6"></path><path d="M42.5 20.3c.4 0 .9.2 1.2.5.3.3.6.6.8 1 0 1.1-.1 2.2-.4 3.2-.1.5-.3 1-.5 1.5s-.4.9-.6 1.4l-.1.3h-.3c-.5 0-1-.2-1.4-.5-.4-.3-.6-.7-.8-1.1-.3-.8-.5-1.7-.4-2.5.1-.8.3-1.6.7-2.4.3-.8 1-1.3 1.8-1.4zm0 0c-.8.1-1.5.6-1.8 1.4-.3.7-.4 1.5-.3 2.3.1.7.3 1.5.7 2.1.3.6.8 1 1.4 1.1l-.5.3c.2-.5.5-1 .7-1.4.2-.4.5-.9.7-1.3.4-.9.7-1.9.9-2.9-.2-.4-.4-.8-.7-1.1-.2-.3-.6-.5-1.1-.5z" fill="#000000" class="fill-041256"></path><path d="m41.6 30.7.2-1c.3-1.2.7-2.3 1.3-3.3 3.1-6.1.6-13.6-5.5-16.7S24 9 20.9 15.2c-1.8 3.6-1.8 7.8 0 11.3.5 1 1 2.1 1.2 3.3l.2 1c.5 2.2 1.7 4.3 3.3 5.9l2.7 2.7c.7.7 1.8 1.2 2.8 1.2" fill="none" stroke="#000000" stroke-width="2" stroke-linecap="round" stroke-miterlimit="10" class="stroke-041256"></path><path d="M31.2 40.5h1.6c1 0 2.1-.4 2.8-1.2l2.7-2.7c1.6-1.6 2.8-3.7 3.3-5.9" fill="none" stroke="#000000" stroke-width="2" stroke-linecap="round" stroke-miterlimit="10" class="stroke-041256"></path><path d="M30.9 36.7c0 .6.5 1.1 1.1 1.1.6 0 1.1-.5 1.1-1.1h-2.2zM33.3 32.7l-.8.4-.5-.1-.5.1-.8-.4-.4.2.4.5c.2.2.4.4.7.5l.6.3.6-.3c.3-.1.5-.3.7-.5l.4-.5-.4-.2z" fill="#edd2c0" class="fill-edd2c0"></path><path d="m33.2 35-1.2.3-1.2-.3-1 .2s.5.7 2.2.9c1.7-.2 2.2-.9 2.2-.9l-1-.2z" fill="#000000" class="fill-f7ad9f"></path><path d="M32.9 34.5c-.3-.2-.9.2-.9.2s-.6-.4-.9-.2-1.7.7-1.7.7l.5.1.6-.1 1.5.4 1.5-.4.6.1.5-.1c0-.1-1.4-.6-1.7-.7z" fill="#000000" class="fill-f7ad9f"></path><path d="M32 33.4c-.2 0-.3 0-.5-.1-.1-.1-.3-.2-.4-.3l-.4-.3c-.1-.1-.2 0-.4.1.1-.1.2-.3.4-.2l.4.2c.1.1.3.1.4.1h.4l.1.5zM33.6 32.9c-.1-.1-.3-.2-.4-.1l-.3.2c-.1.1-.3.2-.4.3-.2.1-.3.1-.5.1v-.5h.4c.1 0 .3-.1.4-.1l.4-.2c.2 0 .3.2.4.3zM29.1 35.1h.8l.8-.1h1.2c.1 0 .2.1.2.2s-.1.2-.2.2h-.1l-1.2-.3h-1.5z" fill="#000000" class="fill-041256"></path><path d="m34.9 35.1-.8.2h-.8l-1.2.3c-.1 0-.3-.1-.3-.2s.1-.2.2-.3l1.2-.1.8.1h.9zM30.9 36.6c.4-.1.7-.1 1.1-.1.4 0 .8 0 1.1.1-.7.2-1.5.2-2.2 0z" fill="#000000" class="fill-041256"></path><circle cx="27.5" cy="27.5" r=".8" fill="#000000" class="fill-041256"></circle><path d="M30.2 26.6c-.3-.1-.6-.3-.9-.4-.3-.1-.6-.1-.8-.1-.5 0-1-.1-1.6-.2-.5-.1-1-.3-1.5-.5.5-.1 1.1-.2 1.6-.2s1 .1 1.5.2c.4 0 .7.2 1 .4.3.3.5.6.7.8z" fill="#000000" class="fill-041256"></path><circle cx="36.3" cy="27.5" r=".8" fill="#000000" class="fill-041256"></circle><path d="M33.6 26.6c.2-.3.4-.5.7-.8.3-.2.6-.3 1-.4.4-.1.9-.2 1.3-.2.5 0 .9 0 1.3.1-.4.2-.8.4-1.2.5-.4.1-.9.2-1.3.2-.3 0-.6 0-.8.1-.3.3-.6.4-1 .5z" fill="#000000" class="fill-041256"></path><path d="M39.5 56s-.6-2.3 3-6.2c0 0-6.9-7.2-2.5-14.5 1.8-3.4 3.1-7.1 3.6-10.9l1.9 3.3c1.6 3.4 1.4 7.3-.6 10.5-3.3 5.3 7.2 6.9 3.4 14 0 0 2.2 1.9 2 3.8" fill="#f2e8d1" class="fill-f2e8d1"></path><path d="M50.4 55.8c0-.5-.1-.9-.3-1.4-.1.2-.2.5-.3.7.2.2.4.4.6.7zM49.3 48.6c-.3-2.3-2.2-3.9-3.6-5.6 0 2.1 2.1 3.7 3.6 5.6zM41.3 38.2c1.8-3.4 3.1-7.1 3.6-10.9l1.3 2.2c-.2-.6-.4-1.2-.7-1.8l-1.9-3.3c-.6 3.8-1.8 7.5-3.7 10.9-2.7 4.5-1.2 8.8.4 11.6-.9-2.9-.6-6.1 1-8.7z" fill="#fff8e9" class="fill-fff8e9"></path><path d="M44.4 28.9c1.6 3.4 1.4 7.3-.5 10.5-3.3 5.3 7.2 6.9 3.4 14 .8.7 1.4 1.6 1.8 2.6h1.4c.2-1.9-2-3.8-2-3.8 3.8-7.1-6.7-8.7-3.4-14 1.9-3.2 2.1-7.1.5-10.5l-1.9-3.3s-.1 1-.5 2.4l1.2 2.1z" fill="#000000" class="fill-5df9e6"></path><path d="M43.8 52.7c-.7-.7-1.3-1.5-1.8-2.3-3 3.6-2.5 5.7-2.5 5.7h1.9c.6-1.3 1.4-2.5 2.4-3.4z" fill="#fff8e9" class="fill-fff8e9"></path><path d="M45 38.2c-.2.6-.3 1.2-.2 1.9.1.6.3 1.1.7 1.5.4.5.8 1 1.2 1.4.4.5.9.9 1.4 1.4 1.1 1.1 1.8 2.4 2.1 3.9.1.8 0 1.5-.2 2.3-.2.7-.5 1.4-.9 2l-.1-.9c.3.3.5.6.7 1 .2.3.4.6.5 1 .3.7.4 1.6.1 2.3-.1-.7-.5-1.3-.9-1.9-.2-.3-.5-.5-.7-.8-.2-.2-.5-.5-.8-.6l-.4-.3.2-.6c.2-.5.4-1.1.5-1.7.1-.5.1-1.1 0-1.6-.3-1.1-.9-2.1-1.7-3-.9-1-1.7-2.2-2.3-3.4-.2-.6-.3-1.3-.2-2.1.2-.7.5-1.3 1-1.8z" fill="#000000" class="fill-041256"></path><path d="M39.5 56c-.1-.6-.1-1.2 0-1.8.1-.6.3-1.2.6-1.8.3-.6.5-1.1.9-1.6.3-.5.7-1 1.1-1.5v.9c-1.7-1.7-3-3.7-3.8-6-.6-1.8-.8-3.6-.5-5.5l.2-.9.3-.9c.2-.6.5-1.2.8-1.7.3-.6.5-1 .8-1.5.5-1 1-2 1.4-3 .8-2.1 1.5-4.2 2-6.4l.3-1.1.5 1c.5 1.1 1.1 2.3 1.6 3.5-.8-1-1.5-2-2.3-3l.8-.1c-.2 2.3-.6 4.6-1.3 6.8-.4 1.1-.8 2.2-1.3 3.3-.2.5-.6 1.1-.8 1.5-.3.4-.5.9-.6 1.4l-.2.7-.3.7c-.1.5-.1 1-.2 1.5 0 1 .2 2.1.5 3.1.6 2.1 1.6 4 3 5.7l.4.5-.4.4-1.2 1.2c-.4.4-.7.9-1 1.3-.3.5-.6 1-.8 1.5-.3.6-.5 1.2-.5 1.8z" fill="#000000" class="fill-041256"></path><path d="M45.6 27.7c.6.8 1 1.6 1.2 2.5.3.9.4 1.8.3 2.8 0 1-.2 1.9-.6 2.8-.4.9-.9 1.7-1.5 2.4.3-.9.6-1.7.8-2.6.2-.9.3-1.7.3-2.6.1-1.8-.1-3.6-.5-5.3z" fill="#000000" class="fill-041256"></path><path d="M24.5 56s.6-2.3-3-6.2c0 0 6.9-7.2 2.5-14.5-1.8-3.4-3.1-7.1-3.6-10.9l-1.9 3.3c-1.6 3.4-1.4 7.3.6 10.5 3.3 5.3-7.2 6.9-3.4 14 0 0-2.1 1.9-1.9 3.8" fill="#f2e8d1" class="fill-f2e8d1"></path><path d="M13.6 56h1.7c.4-1.1 1-2 1.8-2.8-3.8-7.1 6.7-8.7 3.4-14-1.9-3.2-2.1-7.1-.6-10.5l.9-1.5c-.4-1.7-.5-2.8-.5-2.8l-1.9 3.3c-1.6 3.4-1.4 7.3.6 10.5 3.3 5.3-7.2 6.9-3.4 14-.1 0-2.2 1.9-2 3.8z" fill="#fff8e9" class="fill-fff8e9"></path><path d="M13.6 55.8c0-.5.1-.9.3-1.4.1.2.2.5.3.7-.2.2-.4.4-.6.7zM14.7 48.6c.3-2.3 2.2-3.9 3.6-5.6 0 2.1-2.1 3.7-3.6 5.6zM22.7 38.2c-1.8-3.4-3.1-7.1-3.6-10.9l-1.3 2.2c.2-.6.4-1.2.7-1.8l1.9-3.3c.6 3.8 1.8 7.5 3.6 10.9 2.7 4.5 1.2 8.8-.4 11.6 1-2.9.7-6.1-.9-8.7z" fill="#fff8e9" class="fill-fff8e9"></path><path d="M18.4 27.7c-.4 1.7-.6 3.5-.6 5.3 0 .9.1 1.7.3 2.6.2.9.5 1.7.8 2.6-.7-.7-1.2-1.5-1.5-2.4-.4-.9-.6-1.9-.6-2.8 0-1 .1-1.9.3-2.8.3-.9.8-1.8 1.3-2.5z" fill="#000000" class="fill-041256"></path><path d="M20.2 52.7c.7-.7 1.3-1.5 1.8-2.3 3 3.6 2.5 5.7 2.5 5.7h-1.9c-.6-1.3-1.4-2.5-2.4-3.4z" fill="#fff8e9" class="fill-fff8e9"></path><path d="M19 38.2c.5.5.8 1.1 1 1.8.1.8 0 1.5-.3 2.2-.6 1.2-1.4 2.3-2.3 3.4-.8.9-1.3 1.9-1.6 3-.1.5-.1 1.1-.1 1.6.1.6.3 1.1.5 1.7l.2.6-.4.3c-.2.2-.5.4-.8.6-.3.2-.5.5-.7.8-.5.5-.8 1.2-.9 1.9-.2-.8-.2-1.6.2-2.3.2-.4.3-.7.6-1 .2-.4.5-.7.7-1l-.2.9c-.4-.6-.7-1.3-.9-2-.2-.8-.3-1.5-.1-2.3.3-1.5 1-2.8 2.1-3.9l1.4-1.4c.4-.4.9-.9 1.2-1.3.4-.4.6-1 .7-1.5 0-.9-.1-1.5-.3-2.1z" fill="#000000" class="fill-041256"></path><path d="M24.5 56c0-.6-.1-1.2-.4-1.7-.2-.5-.5-1-.8-1.5-.3-.5-.6-.9-1-1.3l-1.2-1.2-.4-.4.4-.5c1.4-1.7 2.4-3.6 3-5.7.3-1 .4-2 .5-3.1 0-.5-.1-1-.2-1.6l-.1-.8-.2-.7c-.2-.5-.4-1-.6-1.4-.2-.4-.6-1-.8-1.5-.5-1.1-.9-2.2-1.3-3.3-.7-2.2-1.1-4.5-1.2-6.8l.8.1c-.7 1-1.5 2-2.3 3 .5-1.2 1-2.3 1.6-3.5l.5-1 .3 1.1c.5 2.2 1.2 4.3 2 6.4.4 1 .9 2 1.4 3 .3.5.5.9.8 1.5.3.5.6 1.1.8 1.7l.3.9.2.9c.3 1.8.1 3.7-.5 5.5-.8 2.3-2.1 4.3-3.8 6v-.9c.4.5.7 1 1.1 1.5.3.5.6 1.1.9 1.7.3.6.4 1.1.6 1.8-.2.6-.2 1.2-.4 1.8z" fill="#000000" class="fill-041256"></path><path d="M38.7 15.5s-6.1 4.6-15.5 2c0 0 .4 5.8-3 7.9 0 0-4-8.7-.8-10.3 0 0 .8-7.2 12.4-7.2s12.3 7 12.3 7 4.2 3-.9 10.5c0 0-1.6-3.8-1.2-5.8s-3.3-4.1-3.3-4.1z" fill="#f2e8d1" class="fill-f2e8d1"></path><path d="M34.7 8.2c-.5-.1-1-.1-1.6-.1 1.2.1 2.5.4 3.6.9-.7-.4-1.4-.6-2-.8zM44.2 15s-.5-4-5.7-6c4.5 2 4.8 5.6 4.8 5.6s3.9 2.9-.4 9.8c.2.6.4 1.1.4 1.1 5-7.4.9-10.5.9-10.5z" fill="#000000" class="fill-5df9e6"></path><path d="M21.1 18s.8-7.2 12.3-7.2c5.8 0 8.8 1.8 10.5 3.5-.5-1.7-2.8-6.3-12.1-6.3-11.6 0-12.4 7.1-12.4 7.1-3.2 1.6.8 10.3.8 10.3.2-.1.3-.2.5-.4-.8-2.6-1.5-6.1.4-7z" fill="#fff8e9" class="fill-fff8e9"></path><path d="M45.6 17.4c-.2-.9-.7-1.8-1.4-2.4-1.8-1.5-4.8-2.8-9.8-2.8-11.6 0-12.4 7.1-12.4 7.1-1 .5-1.3 1.7-1.2 3.2-.1-.9.4-1.8 1.2-2.3 0 0 .8-7.1 12.4-7.1 6.7-.1 9.8 2.3 11.2 4.3z" fill="#fff8e9" class="fill-fff8e9"></path><path d="M45.4 16.8c-.2-.4-.4-.9-.7-1.2-2.5-1.1-5.2-1.7-7.9-1.6-6.4 0-9.5 2.2-11 4.1.2 0 .4.1.6.1 1.7-1.7 4.8-3.4 10.3-3.4 4.1 0 6.9.9 8.7 2z" fill="#fff8e9" class="fill-fff8e9"></path><path d="M20.2 25.5c-.9-1.6-1.6-3.3-2.1-5.1-.3-.9-.4-1.9-.4-2.9 0-.5.1-1.1.3-1.6.2-.6.6-1.1 1.2-1.4l-.4.6c.5-2.9 2.4-5.3 5.1-6.4C26.4 7.5 29 6.9 31.8 7c2.7-.1 5.4.5 7.9 1.6 2.7 1.1 4.6 3.6 5.2 6.4l-.3-.5c.8.8 1.4 1.8 1.6 2.9.2 1 .2 2.1-.1 3.1-.1.5-.3 1-.5 1.4-.2.5-.4.9-.7 1.3s-.5.8-.8 1.2l-.9 1.2.7-1.3c.2-.4.4-.9.6-1.3s.3-.9.4-1.4c.1-.4.2-.9.3-1.4.1-.9.1-1.8-.2-2.7-.2-.8-.7-1.5-1.3-2l-.2-.2-.1-.3c-.3-1.1-.9-2.1-1.7-2.9-.8-.9-1.8-1.5-2.9-2-2.3-.9-4.7-1.3-7.1-1.2-2.4-.1-4.9.4-7.1 1.3-1.1.5-2 1.1-2.9 2-.8.8-1.4 1.9-1.6 3l-.1.4-.3.1c-.6.4-1 1-1 1.7-.1.9 0 1.8.1 2.6.4 2 .8 3.7 1.4 5.5z" fill="#000000" class="fill-041256"></path><path d="M43.3 25.6c-.5-.8-1-1.7-1.3-2.6-.4-1-.5-2-.4-3 0-.8-.3-1.7-.9-2.2-.6-.7-1.3-1.4-2-2.1.9.4 1.8.9 2.5 1.6.4.3.7.8 1 1.2.2.2.3.5.3.8v.9c-.1.9 0 1.8.2 2.7l.6 2.7zM38.7 15.5c-1.1.8-2.2 1.5-3.5 2-1.3.5-2.6.9-4 1.1-1.4.2-2.7.2-4.1.1-1.4-.1-2.7-.4-4-.8l.6-.5c0 .8 0 1.5-.2 2.3-.1.8-.3 1.5-.5 2.2-.3.7-.6 1.4-1.1 2-.5.6-1 1.1-1.7 1.5.6-.5 1-1 1.4-1.6.3-.6.6-1.3.8-2 .2-.7.3-1.4.4-2.1V17l.6.1c.6.1 1.3.3 1.9.4s1.3.2 2 .2c1.3.1 2.6.1 3.9 0 1.3-.1 2.6-.4 3.8-.8 1.3-.2 2.5-.7 3.7-1.4z" fill="#000000" class="fill-041256"></path><path d="M8 56h48" fill="none" stroke="#000000" stroke-width="2" stroke-linecap="round" stroke-miterlimit="10" class="stroke-041256"></path></svg>