<?xml version="1.0" ?><svg id="art" viewBox="0 0 64 64" xmlns="http://www.w3.org/2000/svg"><defs><style>.cls-1{fill:#ea8039;}.cls-2{fill:#e2762d;}.cls-3{fill:#5df9e6;}.cls-4{fill:#f7ac4b;}.cls-5{fill:#ffd19f;}.cls-6{fill:#041256;}.cls-7{fill:#8ec6f4;}.cls-8{fill:#74b3ed;}.cls-9{fill:#b8e2ff;}.cls-10{fill:#d9f1ff;}</style></defs><title/><path class="cls-1" d="M18.17,14.41,10.78,11l3.39,7.34a29.4,29.4,0,0,1,2.65,8.34,8.57,8.57,0,1,0,14.55-7.22,8.43,8.43,0,0,0-4.27-2.32A41.38,41.38,0,0,1,18.17,14.41Z"/><path class="cls-2" d="M26.61,22.84A2.81,2.81,0,0,0,24.76,22a2.66,2.66,0,0,1,.53,1.16,9.71,9.71,0,0,1-2-.62l-1.83-.84.84,1.81a7.28,7.28,0,0,1,.64,2h0A2.85,2.85,0,0,1,21.8,25a2.81,2.81,0,0,0,4.79,1.84h0l0,0A2.8,2.8,0,0,0,26.61,22.84Z"/><path class="cls-3" d="M19.64,28.73A29.59,29.59,0,0,0,17,20.39L13.61,13,21,16.45a42,42,0,0,0,8.94,2.74,8.65,8.65,0,0,1,1.68.54c-.08-.08-.15-.18-.24-.26a8.43,8.43,0,0,0-4.27-2.32,41.38,41.38,0,0,1-8.93-2.74L10.78,11l3.39,7.34a29.4,29.4,0,0,1,2.65,8.34,8.6,8.6,0,0,0,4,6.16,8.12,8.12,0,0,0,1.05.56A8.56,8.56,0,0,1,19.64,28.73Z"/><path class="cls-4" d="M23.34,32.8a8.57,8.57,0,0,1-4-6.16,29.29,29.29,0,0,0-2.65-8.34L14,12.5,10.78,11l3.39,7.34a29.4,29.4,0,0,1,2.65,8.34A8.58,8.58,0,0,0,26.72,34,8.43,8.43,0,0,1,23.34,32.8Z"/><path class="cls-5" d="M22.46,33a8.58,8.58,0,0,1-4-6.16,29.4,29.4,0,0,0-2.65-8.34l-3-6.56-2-.92,3.39,7.34a29.4,29.4,0,0,1,2.65,8.34,8.6,8.6,0,0,0,4,6.16,8.46,8.46,0,0,0,4.55,1.27A8.36,8.36,0,0,1,22.46,33Z"/><path class="cls-4" d="M29.82,18.27A11.33,11.33,0,0,1,12,24.19a11.33,11.33,0,0,0,19.34,7.45l.08-.09.33-.36a8.57,8.57,0,0,0-.37-11.72A8.05,8.05,0,0,0,29.82,18.27Z"/><path class="cls-4" d="M18,30.05A11.34,11.34,0,0,0,24,12.21a11.33,11.33,0,0,1,7.44,19.34l-.09.08c-.11.12-.24.22-.36.33a8.57,8.57,0,0,1-11.72-.36A9.2,9.2,0,0,1,18,30.05Z"/><path class="cls-1" d="M27.1,17.15l-1-.22a.09.09,0,0,0,0,.05A11.3,11.3,0,0,1,18,30.05a8.92,8.92,0,0,0,.73,1c.15.18.3.36.48.54h0c.21.21.44.41.68.61l.3.22.4.28A8.57,8.57,0,0,0,31,32l.1-.09.4-.37.13-.14a8.57,8.57,0,0,0-.22-11.89A8.43,8.43,0,0,0,27.1,17.15Z"/><path class="cls-5" d="M17,31.39a11.24,11.24,0,0,1-3.12-6A11.46,11.46,0,0,1,12,24.19a11.31,11.31,0,0,0,13.8,10.49A11.31,11.31,0,0,1,17,31.39Z"/><path class="cls-3" d="M31.67,17.2a11.27,11.27,0,0,1,3,5.48A11.31,11.31,0,0,0,24,12.21,12.34,12.34,0,0,1,25.09,14,11.24,11.24,0,0,1,31.67,17.2Z"/><path class="cls-4" d="M27.69,27.21l-1.3-.6.6,1.3a5.29,5.29,0,0,1,.46,1.46,1.52,1.52,0,0,0,.71,1.09,1.48,1.48,0,0,0,1.59,0,1.51,1.51,0,0,0-.49-2.75A7.13,7.13,0,0,1,27.69,27.21Z"/><path class="cls-6" d="M23.31,36A12.33,12.33,0,0,1,11,24.24l-.11-2.17L12.6,23.4A10,10,0,0,0,15.48,25a31.68,31.68,0,0,0-2.22-6.19L8.74,9l9.84,4.55a35.84,35.84,0,0,0,6.11,2.07,10.11,10.11,0,0,0-1.51-2.75L21.85,11.1l2.17.12a12.33,12.33,0,0,1,8.1,3.58h0a12.43,12.43,0,0,1,.2,17.25l-.28.29A12.23,12.23,0,0,1,23.31,36Zm-10-9.76a10.34,10.34,0,0,0,17.32,4.73l.24-.26A10.33,10.33,0,0,0,26,13.52a12.66,12.66,0,0,1,1.11,3.22l.3,1.5-1.5-.33a40.28,40.28,0,0,1-8.14-2.59l-4.92-2.27,2.25,4.88a30.56,30.56,0,0,1,2.67,8.26L18,27.56l-1.45-.25A12.46,12.46,0,0,1,13.3,26.2Z"/><path class="cls-5" d="M28.68,23a11.19,11.19,0,0,0,2.47-3.73,9,9,0,0,0-1.33-1,11.26,11.26,0,0,1-8.4,8A11.24,11.24,0,0,0,28.68,23Z"/><path class="cls-6" d="M26.93,23.24A12.42,12.42,0,0,1,22,26.77a9.78,9.78,0,0,1-6.36.34h0A1,1,0,0,1,15,25.85a1,1,0,0,1,1.26-.67l.16.06a8.17,8.17,0,0,0,5.35.57A12,12,0,0,0,26.93,23.24Z"/><path class="cls-6" d="M26.9,15.91a5.38,5.38,0,0,1,.18,2.37,7.62,7.62,0,0,1-.64,2.06,5,5,0,0,0-1.3-3.48,1.05,1.05,0,0,1,1.43-1.55,1,1,0,0,1,.29.46Z"/><path class="cls-4" d="M10.34,18.66a.62.62,0,1,1-.87,0A.62.62,0,0,1,10.34,18.66Z"/><path class="cls-4" d="M9.17,21.13a.23.23,0,1,1-.33,0A.24.24,0,0,1,9.17,21.13Z"/><circle class="cls-4" cx="12.77" cy="21.57" r="0.48"/><path class="cls-4" d="M11.45,20.92a.21.21,0,0,1,0,.29.22.22,0,0,1-.3,0,.21.21,0,0,1,0-.29A.22.22,0,0,1,11.45,20.92Z"/><path class="cls-4" d="M12,18.87a.19.19,0,1,1-.27,0A.2.2,0,0,1,12,18.87Z"/><path class="cls-4" d="M20.64,11.28a.53.53,0,0,1,0,.74.53.53,0,0,1-.75,0,.53.53,0,0,1,0-.74A.53.53,0,0,1,20.64,11.28Z"/><path class="cls-4" d="M17.74,12a.15.15,0,1,1-.21,0A.14.14,0,0,1,17.74,12Z"/><circle class="cls-4" cx="19.54" cy="13.13" r="0.22"/><path class="cls-4" d="M21.1,8.66a.38.38,0,1,1-.54,0A.38.38,0,0,1,21.1,8.66Z"/><polygon class="cls-7" points="29.68 40.05 35.67 46.03 43.84 43.84 46.03 35.67 40.05 29.68 31.87 31.87 29.68 40.05"/><polygon class="cls-8" points="46.03 35.67 40.05 29.68 31.87 31.87 43.84 43.84 46.03 35.67"/><polygon class="cls-3" points="38.68 30.05 44.6 35.97 42.78 42.78 43.84 43.84 46.03 35.67 40.05 29.68 38.68 30.05"/><polygon class="cls-9" points="29.68 40.05 37.86 37.86 40.05 29.68 31.87 31.87 29.68 40.05"/><polygon class="cls-10" points="31.22 39.65 33.41 31.47 40.06 29.69 40.05 29.68 31.87 31.87 29.68 40.05 35.67 46.03 37.2 45.62 31.22 39.65"/><path class="cls-6" d="M35.67,47a1,1,0,0,1-.71-.29l-6-6a1,1,0,0,1-.26-1l2.19-8.17a1,1,0,0,1,.71-.71l8.17-2.19a1,1,0,0,1,1,.26l6,6a1,1,0,0,1,.26,1L44.81,44.1a1,1,0,0,1-.71.71L35.93,47ZM30.8,39.75,36,44.92,43,43,44.92,36,39.75,30.8l-7.06,1.89Z"/><path class="cls-6" d="M50.35,51.35a1,1,0,0,1-.7-.29l-6.52-6.51a1,1,0,0,1-.29-.71,1,1,0,0,1,.29-.71,1,1,0,0,1,1.42,0l6.51,6.52a1,1,0,0,1,.29.7,1,1,0,0,1-1,1Z"/><path class="cls-6" d="M47.23,50.82a1,1,0,0,1-1-1V47.23a1,1,0,0,1,1-1h2.59a1,1,0,0,1,0,2H48.23v1.59A1,1,0,0,1,47.23,50.82Z"/><path class="cls-6" d="M44.43,49.06a1,1,0,0,1-1-1V44.43a1,1,0,0,1,1-1h3.63a1,1,0,0,1,0,2H45.43v2.63A1,1,0,0,1,44.43,49.06Z"/><path class="cls-6" d="M20.79,43.43a1,1,0,0,1-1-.74,1.15,1.15,0,0,1,0-.26,1,1,0,0,1,.74-1l8.89-2.39a1,1,0,0,1,1.23.71,1.15,1.15,0,0,1,0,.26,1,1,0,0,1-.74,1L21.05,43.4A1.15,1.15,0,0,1,20.79,43.43Z"/><path class="cls-6" d="M23.76,44.53a1,1,0,0,1-.49-.13A1,1,0,0,1,22.9,43l.79-1.38-1.37-.79A1,1,0,0,1,22,39.49a1,1,0,0,1,1.37-.36l2.24,1.29a1,1,0,0,1,.37,1.37L24.63,44A1,1,0,0,1,23.76,44.53Z"/><path class="cls-6" d="M27.06,44.41a1,1,0,0,1-.5-.14,1,1,0,0,1-.36-1.36l1.31-2.28-2.27-1.31a1,1,0,0,1,1-1.74l3.14,1.82a1,1,0,0,1,.46.6,1,1,0,0,1-.09.76l-1.82,3.15A1,1,0,0,1,27.06,44.41Z"/><path class="cls-6" d="M46,36.67a1,1,0,0,1-1-.74.82.82,0,0,1,0-.26,1,1,0,0,1,.74-1l8.9-2.38a1,1,0,0,1,1.22.71.75.75,0,0,1,0,.26,1,1,0,0,1-.75,1l-8.89,2.38A.78.78,0,0,1,46,36.67Z"/><path class="cls-6" d="M52.9,36.72a1,1,0,0,1-.5-.13l-2.24-1.3a1,1,0,0,1-.37-1.36l1.29-2.24a1,1,0,0,1,1.74,1L52,34.06l1.38.8a1,1,0,0,1-.5,1.86Z"/><path class="cls-6" d="M50,38.27a1,1,0,0,1-.5-.14l-3.14-1.81A1,1,0,0,1,46,35l1.82-3.14a1,1,0,0,1,1.36-.37,1,1,0,0,1,.37,1.37L48.2,35.09l2.28,1.31a1,1,0,0,1-.5,1.87Z"/><path class="cls-6" d="M33.29,55.93a.75.75,0,0,1-.26,0,1,1,0,0,1-.74-1,1.09,1.09,0,0,1,0-.26l2.38-8.9a1,1,0,0,1,2,.26.78.78,0,0,1,0,.26l-2.38,8.89A1,1,0,0,1,33.29,55.93Z"/><path class="cls-6" d="M35.72,53.9a1,1,0,0,1-.86-.5L34.06,52l-1.37.8a1,1,0,1,1-1-1.74l2.24-1.29a1,1,0,0,1,1.36.37l1.3,2.24a1,1,0,0,1-.37,1.36A.9.9,0,0,1,35.72,53.9Z"/><path class="cls-6" d="M37.27,51a1,1,0,0,1-.87-.5L35.09,48.2l-2.28,1.32a1,1,0,0,1-1.37-.37,1,1,0,0,1,.37-1.36L35,46a1,1,0,0,1,1.37.37l1.81,3.14a1,1,0,0,1-.86,1.5Z"/><path class="cls-6" d="M40.05,30.68a1.15,1.15,0,0,1-.26,0,1,1,0,0,1-.74-1,1.07,1.07,0,0,1,0-.25l2.39-8.9a1,1,0,0,1,2,.26,1.15,1.15,0,0,1,0,.26L41,29.94A1,1,0,0,1,40.05,30.68Z"/><path class="cls-6" d="M41.29,26.06a1,1,0,0,1-.87-.5l-1.29-2.24a1,1,0,1,1,1.73-1l.79,1.37L43,22.9a1,1,0,1,1,1,1.73l-2.24,1.3A1,1,0,0,1,41.29,26.06Z"/><path class="cls-6" d="M40.26,29.88a1,1,0,0,1-.86-.5l-1.82-3.14a1,1,0,0,1,1.74-1l1.31,2.27,2.28-1.31a1,1,0,0,1,1.36.36,1,1,0,0,1-.36,1.37l-3.15,1.81A.9.9,0,0,1,40.26,29.88Z"/><polygon class="cls-7" points="40.63 52.51 39.99 51.87 39.12 52.1 38.88 52.98 39.52 53.62 40.4 53.38 40.63 52.51"/><polygon class="cls-7" points="42.13 48.48 41.49 47.84 40.61 48.07 40.38 48.95 41.02 49.59 41.89 49.35 42.13 48.48"/><polygon class="cls-7" points="43.34 51.98 43.02 51.66 42.58 51.78 42.46 52.22 42.78 52.54 43.22 52.42 43.34 51.98"/><polygon class="cls-7" points="26.28 47.26 26.54 46.39 25.92 45.73 25.04 45.94 24.78 46.81 25.4 47.47 26.28 47.26"/><polygon class="cls-7" points="30.54 46.66 30.8 45.79 30.18 45.13 29.29 45.34 29.03 46.21 29.66 46.87 30.54 46.66"/><polygon class="cls-7" points="28.03 49.39 28.16 48.96 27.85 48.63 27.41 48.73 27.27 49.16 27.59 49.49 28.03 49.39"/><polygon class="cls-7" points="49.44 28.46 49.17 29.33 49.8 29.99 50.68 29.78 50.94 28.91 50.32 28.25 49.44 28.46"/><polygon class="cls-7" points="45.18 29.06 44.92 29.93 45.54 30.59 46.42 30.38 46.68 29.51 46.06 28.85 45.18 29.06"/><polygon class="cls-7" points="47.69 26.33 47.56 26.76 47.87 27.09 48.31 26.99 48.44 26.55 48.13 26.22 47.69 26.33"/><polygon class="cls-7" points="52.51 40.63 51.87 39.99 52.1 39.12 52.98 38.88 53.62 39.52 53.38 40.4 52.51 40.63"/><polygon class="cls-7" points="48.48 42.13 47.84 41.49 48.07 40.61 48.95 40.38 49.59 41.02 49.35 41.89 48.48 42.13"/><polygon class="cls-7" points="51.98 43.34 51.66 43.02 51.78 42.58 52.22 42.46 52.54 42.78 52.42 43.22 51.98 43.34"/><circle class="cls-4" cx="10.04" cy="32.16" r="0.74"/><path class="cls-4" d="M13.87,36.22a.55.55,0,1,1-.55-.55A.55.55,0,0,1,13.87,36.22Z"/><path class="cls-4" d="M13.32,33.56a.28.28,0,0,1-.55,0,.28.28,0,1,1,.55,0Z"/><path class="cls-4" d="M11.09,36.2a.53.53,0,1,1-.52-.53A.52.52,0,0,1,11.09,36.2Z"/><path class="cls-4" d="M17.78,36.6a.88.88,0,1,1-.88-.88A.88.88,0,0,1,17.78,36.6Z"/><path class="cls-4" d="M16.9,39.86a.44.44,0,1,1-.88,0,.44.44,0,1,1,.88,0Z"/><path class="cls-4" d="M20.86,37.56a.3.3,0,1,1-.3-.29A.3.3,0,0,1,20.86,37.56Z"/><path class="cls-4" d="M30.45,10a.27.27,0,1,1-.26-.27A.27.27,0,0,1,30.45,10Z"/><path class="cls-4" d="M35.67,12a.9.9,0,1,1-.9-.9A.89.89,0,0,1,35.67,12Z"/><circle class="cls-4" cx="32.09" cy="11.87" r="0.22"/><circle class="cls-4" cx="37.39" cy="10.76" r="0.47"/><path class="cls-4" d="M37.63,15.78a.61.61,0,1,1-.6-.61A.6.6,0,0,1,37.63,15.78Z"/><path class="cls-4" d="M41.24,14.67a.59.59,0,1,1-.59-.59A.59.59,0,0,1,41.24,14.67Z"/><path class="cls-4" d="M34.73,15.1a.43.43,0,0,1-.85,0,.43.43,0,1,1,.85,0Z"/><circle class="cls-4" cx="38.08" cy="19.26" r="0.45"/><path class="cls-4" d="M37.42,21a.25.25,0,1,1-.5,0,.25.25,0,0,1,.5,0Z"/><path class="cls-4" d="M12.56,41a.74.74,0,1,1-.73-.73A.73.73,0,0,1,12.56,41Z"/><path class="cls-4" d="M16.46,43.59a.69.69,0,1,1-.69-.69A.69.69,0,0,1,16.46,43.59Z"/><path class="cls-4" d="M14.52,39.24a.33.33,0,0,1-.33.33.32.32,0,0,1-.32-.33.32.32,0,0,1,.32-.32A.32.32,0,0,1,14.52,39.24Z"/><path class="cls-4" d="M44.5,17.73a.8.8,0,1,1-.8-.8A.8.8,0,0,1,44.5,17.73Z"/><path class="cls-7" d="M22.08,47.87a.65.65,0,1,1-.64-.64A.65.65,0,0,1,22.08,47.87Z"/><path class="cls-7" d="M19.52,46.91a.32.32,0,1,1-.63,0,.32.32,0,0,1,.63,0Z"/><circle class="cls-7" cx="47.62" cy="23.35" r="0.79"/><path class="cls-7" d="M47.92,20.25a.54.54,0,1,1-.54-.54A.54.54,0,0,1,47.92,20.25Z"/></svg>