<svg viewBox="0 0 64 64" xmlns="http://www.w3.org/2000/svg"><ellipse cx="32" cy="33.79" rx="14.4" ry="8.96" fill="#000000" class="fill-041256"></ellipse><path d="M32 37.33c-9.52 0-18.08 2.41-24 6.23V56h48V43.57c-5.91-3.83-14.47-6.24-24-6.24Z" fill="#000000" class="fill-385272"></path><path d="M13.84 56h36.32a28.86 28.86 0 0 0 4.47-13.26 45.14 45.14 0 0 0-20-5.34c-.88 0-1.75-.07-2.65-.07-.89 0-1.76 0-2.64.07a45.09 45.09 0 0 0-20 5.33A28.75 28.75 0 0 0 13.84 56Z" fill="#000000" class="fill-2c4460"></path><path d="M11.26 41.74A26.06 26.06 0 0 0 16.53 56h30.94a26 26 0 0 0 5.27-14.26A47.78 47.78 0 0 0 32 37.33a47.75 47.75 0 0 0-20.74 4.41Z" fill="#000000" class="fill-456a82"></path><path d="M33.62 37.34h-.4a50.1 50.1 0 0 0-20.74 4.18 24 24 0 0 0 5.27 13.54h.81a24 24 0 0 1-5.27-13.54 50 50 0 0 1 20.33-4.18Z" fill="#225a7d" class="fill-6d96ad"></path><path d="M36.12 37.34h-.41A50.13 50.13 0 0 0 15 41.51a24.07 24.07 0 0 0 5.27 13.54h.81a24 24 0 0 1-5.27-13.54 50 50 0 0 1 20.31-4.17Z" fill="#225a7d" class="fill-6d96ad"></path><path d="M38.61 37.34h-.41a50.08 50.08 0 0 0-20.73 4.18 24 24 0 0 0 5.27 13.54h.8a24.07 24.07 0 0 1-5.27-13.54 50 50 0 0 1 20.34-4.18Z" fill="#225a7d" class="fill-6d96ad"></path><path d="M41.1 37.34h-.4A50.1 50.1 0 0 0 20 41.51a24 24 0 0 0 5.27 13.54H26a24 24 0 0 1-5.27-13.54 49.92 49.92 0 0 1 20.37-4.17Z" fill="#225a7d" class="fill-6d96ad"></path><path d="M43.59 37.34h-.4a50.1 50.1 0 0 0-20.74 4.18 24 24 0 0 0 5.27 13.54h.81a24 24 0 0 1-5.27-13.54 49.92 49.92 0 0 1 20.33-4.18Z" fill="#225a7d" class="fill-6d96ad"></path><path d="M30.38 37.34h.4a50.1 50.1 0 0 1 20.74 4.18 24 24 0 0 1-5.27 13.54h-.81a24 24 0 0 0 5.27-13.54 50 50 0 0 0-20.33-4.18Z" fill="#225a7d" class="fill-6d96ad"></path><path d="M27.88 37.34h.41A50.13 50.13 0 0 1 49 41.51a24.07 24.07 0 0 1-5.27 13.54H43a24 24 0 0 0 5.27-13.54 50 50 0 0 0-20.39-4.17Z" fill="#225a7d" class="fill-6d96ad"></path><path d="M25.39 37.34h.41a50.08 50.08 0 0 1 20.73 4.18 24 24 0 0 1-5.27 13.54h-.8a24.07 24.07 0 0 0 5.27-13.54 50 50 0 0 0-20.34-4.18Z" fill="#225a7d" class="fill-6d96ad"></path><path d="M22.9 37.34h.4A50.1 50.1 0 0 1 44 41.51a24 24 0 0 1-5.27 13.54H38a24 24 0 0 0 5.27-13.54 49.92 49.92 0 0 0-20.37-4.17Z" fill="#225a7d" class="fill-6d96ad"></path><path d="M20.41 37.34h.4a50.1 50.1 0 0 1 20.74 4.18 24 24 0 0 1-5.27 13.54h-.81a24 24 0 0 0 5.27-13.54 49.92 49.92 0 0 0-20.33-4.18Z" fill="#225a7d" class="fill-6d96ad"></path><path d="M32 37.33c-9.52 0-18.08 2.41-24 6.23v3.84c5.91-3.82 14.47-6.23 24-6.23s18.1 2.41 24 6.24v-3.84c-5.91-3.83-14.47-6.24-24-6.24Z" fill="#000000" class="fill-456a82"></path><path d="M32 37.33c-9.52 0-18.08 2.41-24 6.23v2.38c5.91-3.82 14.47-6.23 24-6.23S50.09 42.12 56 46v-2.43c-5.91-3.83-14.47-6.24-24-6.24Z" fill="#225a7d" class="fill-6d96ad"></path><path d="M32.2 41.17c9.45 0 17.93 2.44 23.8 6.24v-3.84c-5.87-3.8-14.35-6.2-23.8-6.23Z" fill="#000000" class="fill-5df9e6"></path><path d="M57 57H7V43l.46-.3c6.28-4.06 15.22-6.39 24.54-6.39s18.26 2.34 24.54 6.4L57 43ZM9 55h46V44.12c-5.94-3.68-14.29-5.79-23-5.79s-17.06 2.11-23 5.78Z" fill="#000000" class="fill-041256"></path><path d="m47.65 41.09-2.24-6.28.93-.16-2.04-2.84v-1.68l-5.57.41-6.72 14.21-6.71-14.21-5.57-.41v1.68l-2.05 2.84.93.16-2.23 6.28 2.79-.79-2.79 3.97h4l.46 5.26 3.09-.44-.43 2.48 1.17-.71 1.58 2.55 2.2-1.75 1.03 2.49 1.05-1.52 1.48 1.69 1.49-1.69 1.05 1.52 1.02-2.49 2.21 1.75 1.57-2.55 1.17.71-.43-2.48 3.1.44.45-5.26h4.01l-2.8-3.97 2.8.79z" fill="#000000" class="fill-577593"></path><path d="M38.73 30.54 32 44.75l-.18 3.76a5.31 5.31 0 0 0 3.78-1.57l3.71-3.7A5.39 5.39 0 0 0 40.85 40l.26-2.41A15.11 15.11 0 0 1 42.29 33a13.1 13.1 0 0 0 .9-2.78Z" fill="#000000" class="fill-385272"></path><path d="m19.19 41.09 2.23-6.28-.93-.16 2.05-2.84v-1.47l-2.81-.21v1.68l-2.05 2.84.93.16-2.23 6.28 2.79-.79-2.79 3.97h2.81l2.79-3.97-2.79.79zM33.42 52.72l-.08-.09-.58.84.66-.75zM42.9 49.09l.08.41.21.03.03-.4-.32-.04zM34.82 44.75l6.72-14.21 2.76-.2v-.21l-5.57.41-5.31 11.23 1.4 2.98zM27.48 50.86l-1.16.71.42-2.48-2.88.41-.36 2.07 1.17-.71 1.58 2.55 1.88-1.5-.65-1.05zM23.19 44.27h-2.81l.46 5.26 2.77-.4-.42-4.86zM38.38 51.66l-.69 1.68.09.07.92-1.5-.32-.25zM34.08 53.47l.47.68.04-.1-.51-.58z" fill="#000000" class="fill-8ca3b5"></path><path d="m44.56 41.09-2.23-6.28.93-.16-2.04-2.84v-1.47l2.81-.21v1.68l2.04 2.84-.93.16 2.24 6.28-2.8-.79 2.8 3.97h-2.82l-2.79-3.97 2.79.79zM30.34 52.72l.08-.09.58.84-.66-.75zM20.85 49.09l-.07.41-.21.03-.04-.4.32-.04zM28.93 44.75l-6.72-14.21-2.75-.2v-.21l5.56.41 5.32 11.23-1.41 2.98zM36.27 50.86l1.17.71-.43-2.48 2.89.41.35 2.07-1.17-.71-1.57 2.55-1.89-1.5.65-1.05zM40.56 44.27h2.82l-.46 5.26-2.78-.4.42-4.86zM25.37 51.66l.7 1.68-.09.07-.93-1.5.32-.25zM29.68 53.47l-.47.68-.04-.1.51-.58z" fill="#000000" class="fill-5df9e6"></path><ellipse cx="32.01" cy="43.4" rx="3.13" ry="5.6" fill="#f4d2ba" class="fill-f4d2ba"></ellipse><path d="m32 50.19-.54-.35a7.58 7.58 0 0 1 0-12.88l.54-.35.54.35a7.57 7.57 0 0 1 0 12.88ZM32 39a5.56 5.56 0 0 0 0 8.74A5.55 5.55 0 0 0 32 39Z" fill="#000000" class="fill-041256"></path><path d="m34.77 56.22-1.37-2-1.4 1.61-1.39-1.58-1.36 2L28 53.27l-2 1.62-1.65-2.66-2.19 1.33.56-3.29-2.78.4-.47-5.4h-5L16.73 42l-1.94.56 2.48-7-1.33-.24 2.79-3.86v-2.41l7.16.53L32 39.87l6.13-10.29 7.16-.53v2.44l2.79 3.86-1.34.24 2.49 7-2-.55 2.28 3.24h-5l-.47 5.4-2.78-.4.57 3.29-2.2-1.33L38 54.89l-2-1.62ZM30.44 51 32 52.8l1.59-1.8.73 1 .84-2 2.36 1.88L39 49.49l.14.09-.29-1.67 3.41.48.45-5.12h3l-3.3-4.7 3.63 1-2-5.57.53-.09-1.3-1.8v-.91l-4 .3L32 43.78 24.7 31.5l-4-.3v.94l-1.3 1.8.6.06-2 5.6 3.64-1-3.3 4.7h3l.44 5.12 3.41-.48-.29 1.67.14-.09 1.51 2.44 2.36-1.88.83 2Z" fill="#000000" class="fill-041256"></path><path d="M45.09 20.9a13.09 13.09 0 1 0-25 5.33 15.52 15.52 0 0 1 1.22 4.7l.25 2.41a5.32 5.32 0 0 0 1.54 3.21l3.71 3.71a5.34 5.34 0 0 0 3.77 1.56h2.92a5.34 5.34 0 0 0 3.77-1.56l3.71-3.71a5.32 5.32 0 0 0 1.54-3.21l.25-2.41a14.84 14.84 0 0 1 1.19-4.63 13 13 0 0 0 1.13-5.4Z" fill="#f4d2ba" class="fill-f4d2ba"></path><path d="M33.93 37.5c0 .16-.86 1.84-1.93 1.84s-1.93-1.68-1.93-1.84.86-.3 1.93-.3 1.93.13 1.93.3Z" fill="#eac2a7" class="fill-eac2a7"></path><path d="m22.47 13.9-.6 11.1-.68 1.12 1.28 2.17 1-3.53a2.08 2.08 0 0 1 2.4-1.48l2.74.53a2 2 0 0 0 1.59-.34l.89-.62A2.07 2.07 0 0 0 32 21.1v-4.54Z" fill="#ffeadc" class="fill-ffeadc"></path><path d="M34.41 32.25 34 32l-2 .71-2-.71-.42.25c-.64.38-.51 1.15.23 1.39l2.18.7 2.18-.7c.75-.24.88-1.01.24-1.39Z" fill="#eac2a7" class="fill-eac2a7"></path><path d="m28.6 26.08 2 1.45a2 2 0 0 1 .82 1.61v3.78L30 32l-.22.08v-.68l.75-.28-.64-1.45a1 1 0 0 1 0-.69l.09-.31a1 1 0 0 0-.15-.86Z" fill="#ffeadc" class="fill-ffeadc"></path><path d="m35.4 26.08-2 1.45a2 2 0 0 0-.82 1.61v3.78L34 32l.22.08v-.68l-.75-.28.64-1.45a1 1 0 0 0 0-.69l-.11-.31a1 1 0 0 1 .15-.86Z" fill="#f9dfcd" class="fill-f9dfcd"></path><path d="M35.47 41.17h-2.92a5.34 5.34 0 0 1-3.77-1.56l-3.71-3.71a5.36 5.36 0 0 1-1.53-3.21l-.26-2.41a15.52 15.52 0 0 0-1.22-4.7A13.06 13.06 0 0 1 29 8.16a13.16 13.16 0 0 0-10 11.11 13 13 0 0 0 1 7 15.52 15.52 0 0 1 1.22 4.7l.25 2.41a5.32 5.32 0 0 0 1.54 3.21l3.71 3.71a5.34 5.34 0 0 0 3.77 1.56h2.92a5.32 5.32 0 0 0 2.61-.71c-.15-.02-.35.02-.55.02Z" fill="#ffeadc" class="fill-ffeadc"></path><path d="M28.53 41.17h2.92a5.34 5.34 0 0 0 3.77-1.56l3.71-3.71a5.36 5.36 0 0 0 1.53-3.21l.26-2.41a15.52 15.52 0 0 1 1.22-4.7 13 13 0 0 0 1-7A13.18 13.18 0 0 0 35 8.16a13.16 13.16 0 0 1 10 11.11 13 13 0 0 1-1 7 15.52 15.52 0 0 0-1.22 4.7l-.25 2.41a5.32 5.32 0 0 1-1.54 3.21l-3.71 3.71a5.34 5.34 0 0 1-3.77 1.56h-2.97a5.32 5.32 0 0 1-2.61-.71c.2-.02.4.02.6.02Z" fill="#000000" class="fill-5df9e6"></path><path d="m32 33.42-.36-.06a1.22 1.22 0 0 1-.52-.19 7.5 7.5 0 0 1-.56-.53l-.51-.5c-.1-.14-.32.09-.52.22l.21-.3a.36.36 0 0 1 .43-.14l.67.31c.21.09.48.23.63.28s.07 0 .17 0l.36-.06Z" fill="#000000" class="fill-041256"></path><path d="M34.47 32.36c-.2-.13-.42-.36-.52-.22l-.51.5a7.5 7.5 0 0 1-.56.53 1.22 1.22 0 0 1-.52.19l-.36.06v-1l.36.06h.17c.07 0 .42-.19.63-.28l.67-.31a.36.36 0 0 1 .43.14ZM28 35.2l1.21.09h-.07l1.15-.37h1.81a.49.49 0 0 1 .49.51.52.52 0 0 1-.51.5.58.58 0 0 1-.14 0l-1.63-.48h.1l-1.2.16h-.07Z" fill="#000000" class="fill-041256"></path><path d="m36 35.2-1.14.41h-.07l-1.2-.16h.1l-1.63.48a.5.5 0 0 1-.63-.34.5.5 0 0 1 .34-.62.3.3 0 0 1 .13 0h1.81l1.15.37h-.07ZM30.15 37.33a7 7 0 0 1 3.7 0 7 7 0 0 1-3.7 0Z" fill="#000000" class="fill-041256"></path><path d="m24.48 25.33.26.92a2.27 2.27 0 0 0 .71 1.11l.9.74a1.83 1.83 0 0 0 1 .41l1 .06a1.18 1.18 0 0 0 1.26-1.15v-.59L28.43 26Z" fill="#eac2a7" class="fill-eac2a7"></path><path d="M24.48 25.33a7.3 7.3 0 0 1 2.79-.06l.67.14a2.46 2.46 0 0 1 .74.27 2.27 2.27 0 0 1 .59.52 4 4 0 0 1 .37.63 4.55 4.55 0 0 1-.68-.25 3.18 3.18 0 0 0-.58-.17 3.41 3.41 0 0 0-.59-.07l-.68-.08a6.93 6.93 0 0 1-2.63-.93Z" fill="#000000" class="fill-041256"></path><path d="M28.15 26.58a.75.75 0 0 1-1.5 0 .75.75 0 0 1 1.5 0Z" fill="#000000" class="fill-041256"></path><path d="m39.52 25.33-.26.92a2.27 2.27 0 0 1-.71 1.11l-.9.74a1.83 1.83 0 0 1-1 .41l-1 .06a1.18 1.18 0 0 1-1.26-1.15v-.59l1.18-.83Z" fill="#eac2a7" class="fill-eac2a7"></path><path d="M39.52 25.33a6.93 6.93 0 0 1-2.63.93l-.68.08a3.41 3.41 0 0 0-.59.07 3.18 3.18 0 0 0-.58.17 4.55 4.55 0 0 1-.68.25 4 4 0 0 1 .37-.63 2.27 2.27 0 0 1 .59-.52 2.46 2.46 0 0 1 .74-.27l.67-.14a7.3 7.3 0 0 1 2.79.06Z" fill="#000000" class="fill-041256"></path><path d="M35.85 26.58a.75.75 0 0 0 1.5 0 .75.75 0 0 0-1.5 0ZM27.17 36.22a11 11 0 0 1 .83-1.08 3.53 3.53 0 0 1 1.17-.85l1.28-.48 1.23-.45a1 1 0 0 1 1.3.6 1 1 0 0 1-.6 1.31 1.26 1.26 0 0 1-.38.06l-2.58-.08a2.78 2.78 0 0 0-1.12.29 12.06 12.06 0 0 0-1.13.68Z" fill="#000000" class="fill-041256"></path><path d="M36.83 36.22a12.06 12.06 0 0 0-1.09-.68 2.78 2.78 0 0 0-1.12-.29l-2.62.08a1 1 0 0 1-1.05-1 1 1 0 0 1 1-1.05 1 1 0 0 1 .38.07l1.23.45 1.28.48a3.53 3.53 0 0 1 1.17.85 11 11 0 0 1 .82 1.09ZM24.37 32.17l-1.27-.84c-.41-.28-.85-.54-1.28-.89a8.4 8.4 0 0 1-1.16-1.15l-1-1.22 1.76-1 .49 1.4a6.74 6.74 0 0 0 .63 1.26 12.82 12.82 0 0 0 .9 1.27ZM39.63 32.17l.93-1.17a12.82 12.82 0 0 0 .87-1.19 6.74 6.74 0 0 0 .63-1.26l.49-1.4 1.76 1-1 1.22a8.4 8.4 0 0 1-1.16 1.15c-.43.35-.87.61-1.28.89Z" fill="#000000" class="fill-041256"></path><path d="M33.46 42.82h-2.92A6.29 6.29 0 0 1 26.06 41l-3.71-3.7a6.36 6.36 0 0 1-1.82-3.81L20.27 31a14.49 14.49 0 0 0-1.13-4.4 14.09 14.09 0 1 1 27-5.74 13.84 13.84 0 0 1-1.26 5.81A13.93 13.93 0 0 0 43.73 31l-.26 2.41a6.36 6.36 0 0 1-1.82 3.81L37.94 41a6.29 6.29 0 0 1-4.48 1.82ZM32 8.81a12 12 0 0 0-1.33.07A12.08 12.08 0 0 0 21 25.82a16.39 16.39 0 0 1 1.3 5l.26 2.41a4.36 4.36 0 0 0 1.24 2.61l3.71 3.71a4.31 4.31 0 0 0 3.07 1.27h2.92a4.31 4.31 0 0 0 3.07-1.27l3.71-3.71a4.36 4.36 0 0 0 1.24-2.61l.26-2.4A15.81 15.81 0 0 1 43 25.88a11.87 11.87 0 0 0 1.08-5 12.13 12.13 0 0 0-4-9A12 12 0 0 0 32 8.81Z" fill="#000000" class="fill-041256"></path><path d="m35.53 40.37-.55.18a3 3 0 0 1-2.53-.28.86.86 0 0 0-.9 0 3 3 0 0 1-2.53.28l-.55-.18L22.14 37l3.25 4.07a12.74 12.74 0 0 0 6.29 4.27 1.16 1.16 0 0 0 .64 0 12.74 12.74 0 0 0 6.29-4.27L41.86 37ZM43 11.82a12.91 12.91 0 0 0-6.78-4.4 16 16 0 0 0-8.52 0 12.91 12.91 0 0 0-6.7 4.4 14.55 14.55 0 0 0-3.13 9V24a2 2 0 0 0 .59 1.41L21.92 29l-.34-2.81a1.77 1.77 0 0 1 .29-1.19l.78-1.16a2 2 0 0 0 .35-1.39l-.42-3.52a.79.79 0 0 1 .65-.87l4.2-.69a4.58 4.58 0 0 1 3.9 1.18 1 1 0 0 0 1.38 0 4.58 4.58 0 0 1 3.9-1.18l4.2.69a.79.79 0 0 1 .65.87L41 22.45a2 2 0 0 0 .33 1.35l.8 1.2a1.77 1.77 0 0 1 .29 1.18L42.08 29l3.5-3.55a2 2 0 0 0 .59-1.45v-3.16A14.55 14.55 0 0 0 43 11.82Z" fill="#000000" class="fill-041256"></path><path d="M43 11.82a12.91 12.91 0 0 0-6.78-4.4 16 16 0 0 0-8.52 0 12.91 12.91 0 0 0-6.7 4.4 14.55 14.55 0 0 0-3.13 9V24a2 2 0 0 0 .59 1.41L21.92 29l-.34-2.81a1.77 1.77 0 0 1 .29-1.19l.78-1.16a2 2 0 0 0 .35-1.39l-.42-3.52a.79.79 0 0 1 .65-.87l4.2-.69a4.58 4.58 0 0 1 3.9 1.18 1 1 0 0 0 1.38 0 4.58 4.58 0 0 1 3.9-1.18l4.2.69a.79.79 0 0 1 .65.87L41 22.45a2 2 0 0 0 .33 1.35l.8 1.2a1.77 1.77 0 0 1 .29 1.18L42.08 29l3.5-3.55a2 2 0 0 0 .59-1.45v-3.16A14.55 14.55 0 0 0 43 11.82Z" fill="#000000" class="fill-041256"></path><path d="M26.46 12.47a15.19 15.19 0 0 1-.4-2.28 3.05 3.05 0 0 0-.44 2.49 3.09 3.09 0 0 0 1.6 2 14.67 14.67 0 0 1-.76-2.21ZM30.17 12.75a25.15 25.15 0 0 1-.69-3.91 5.18 5.18 0 0 0-.8 4.29 5.24 5.24 0 0 0 2.78 3.37 24.62 24.62 0 0 1-1.29-3.75ZM24.38 13.57a13 13 0 0 1-.82-1.69 2.49 2.49 0 0 0 1.89 3.24 11.42 11.42 0 0 1-1.07-1.55ZM23 15a10.28 10.28 0 0 1-1-1.1 2.07 2.07 0 0 0 2.26 2.1A9.63 9.63 0 0 1 23 15Z" fill="#000000" class="fill-283a7c"></path><path d="M37.54 12.47a15.19 15.19 0 0 0 .4-2.28 3.05 3.05 0 0 1 .44 2.49 3.09 3.09 0 0 1-1.6 2 14.67 14.67 0 0 0 .76-2.21ZM39.62 13.57a13 13 0 0 0 .82-1.69 2.49 2.49 0 0 1-1.89 3.24 11.42 11.42 0 0 0 1.07-1.55ZM41 15a10.28 10.28 0 0 0 1.07-1.14A2.07 2.07 0 0 1 39.74 16 9.63 9.63 0 0 0 41 15Z" fill="#000000" class="fill-5df9e6"></path><path d="M20.49 27.33A10.06 10.06 0 0 0 18.31 25c-.75-.32-2 2.63 0 4.26s1.48 2.54 2.84 2.75Z" fill="#f4d2ba" class="fill-f4d2ba"></path><path d="M21.15 33H21a2.45 2.45 0 0 1-1.9-1.37A5.41 5.41 0 0 0 17.68 30a4 4 0 0 1-.94-5.1 1.56 1.56 0 0 1 2-.86 9.23 9.23 0 0 1 2.6 2.69.9.9 0 0 1 .18.43l.66 4.67a1 1 0 0 1-.29.85 1 1 0 0 1-.74.32Zm-2.83-6.74a2.32 2.32 0 0 0-.11.79 1.87 1.87 0 0 0 .72 1.42 7.59 7.59 0 0 1 .81.73l-.21-1.48a14.88 14.88 0 0 0-1.21-1.46Z" fill="#000000" class="fill-041256"></path><path d="M43.51 27.33A10.06 10.06 0 0 1 45.69 25c.75-.32 2 2.63 0 4.26s-1.48 2.53-2.84 2.74Z" fill="#f4d2ba" class="fill-f4d2ba"></path><path d="M42.85 33a1 1 0 0 1-.7-.29 1 1 0 0 1-.29-.85l.66-4.67a.9.9 0 0 1 .18-.43 9.23 9.23 0 0 1 2.6-2.69 1.56 1.56 0 0 1 2 .86 4 4 0 0 1-.94 5.1 5.41 5.41 0 0 0-1.41 1.59A2.45 2.45 0 0 1 43 33Zm1.62-5.28-.21 1.48a7.59 7.59 0 0 1 .81-.73 1.87 1.87 0 0 0 .72-1.42 2.32 2.32 0 0 0-.11-.79 14.88 14.88 0 0 0-1.21 1.46Z" fill="#000000" class="fill-041256"></path></svg>